<?xml version="1.0" standalone="no"?>
<!DOCTYPE svg PUBLIC "-//W3C//DTD SVG 20010904//EN"
 "http://www.w3.org/TR/2001/REC-SVG-20010904/DTD/svg10.dtd">
<svg version="1.0" xmlns="http://www.w3.org/2000/svg"
 width="300.000000pt" height="188.000000pt" viewBox="0 0 300.000000 188.000000"
 preserveAspectRatio="xMidYMid meet">
<metadata>
Created by potrace 1.10, written by Peter Selinger 2001-2011
</metadata>
<g transform="translate(0.000000,188.000000) scale(0.100000,-0.100000)"
fill="#000000" stroke="none">
<path d="M419 1561 c18 -12 211 -12 211 0 0 5 -48 9 -112 9 -68 0 -107 -4 -99
-9z"/>
<path d="M995 1510 c-18 -20 -65 -28 -65 -11 0 5 -8 12 -17 15 -13 6 -12 2 5
-17 29 -31 45 -30 79 5 15 15 24 28 21 28 -3 0 -13 -9 -23 -20z"/>
<path d="M656 1503 c5 -10 9 -43 11 -73 3 -77 6 -76 12 5 6 66 1 84 -23 85 -4
0 -4 -8 0 -17z"/>
<path d="M769 1511 l75 -6 -3 -69 c-2 -43 1 -66 7 -62 6 3 13 0 15 -6 3 -7 5
12 5 42 -1 51 -1 52 -9 20 -6 -29 -7 -24 -4 22 4 67 1 69 -93 66 l-67 -2 74
-5z"/>
<path d="M1040 1484 c0 -21 4 -33 10 -29 6 3 10 -3 10 -14 0 -11 -5 -23 -10
-26 -15 -9 -9 -73 7 -79 7 -3 12 -2 11 2 -1 4 2 15 7 25 4 9 4 33 1 52 -3 19
-9 51 -12 70 -8 46 -24 45 -24 -1z"/>
<path d="M510 1485 c0 -14 4 -25 9 -25 17 0 41 12 41 21 0 4 -8 5 -17 2 -16
-6 -16 -5 -4 10 12 15 11 17 -8 17 -16 0 -21 -6 -21 -25z"/>
<path d="M1110 1474 c0 -11 8 -14 27 -12 39 4 42 28 4 28 -21 0 -31 -5 -31
-16z"/>
<path d="M1275 1480 c-3 -5 0 -10 8 -10 15 0 12 -56 -4 -66 -16 -10 -9 -24 11
-24 18 0 20 7 20 55 0 41 -4 55 -14 55 -8 0 -18 -4 -21 -10z"/>
<path d="M1350 1480 c12 -7 12 -14 2 -43 -17 -46 -15 -57 8 -57 11 0 20 7 20
15 0 8 -4 15 -8 15 -18 0 1 62 22 70 17 7 13 9 -19 9 -28 1 -36 -2 -25 -9z"/>
<path d="M1500 1475 c0 -10 10 -15 31 -15 17 0 28 4 24 10 -3 6 -1 10 4 10 6
0 11 -4 11 -10 0 -15 17 -12 24 5 4 12 -4 15 -44 15 -38 0 -50 -4 -50 -15z"/>
<path d="M611 1467 c0 -7 4 -21 9 -32 8 -19 9 -19 9 3 1 12 6 22 11 22 19 0
10 16 -10 17 -11 1 -20 -4 -19 -10z"/>
<path d="M727 1449 c-30 -33 -18 -54 28 -53 39 1 40 2 43 37 2 21 -1 37 -7 37
-6 0 -11 -6 -11 -14 0 -8 -6 -16 -14 -19 -10 -4 -12 0 -9 14 7 24 -7 23 -30
-2z"/>
<path d="M900 1418 l0 -57 27 14 c22 12 30 12 55 -1 l28 -15 0 57 c0 47 -2 55
-14 45 -17 -14 -28 -51 -14 -51 5 0 7 -4 4 -9 -7 -11 -72 -9 -68 2 1 4 2 13 2
20 0 8 3 7 10 -3 5 -8 12 -11 16 -7 5 4 -4 20 -19 35 l-27 27 0 -57z"/>
<path d="M1197 1462 c-5 -7 -5 -21 -2 -32 3 -11 6 -37 7 -58 0 -23 5 -39 12
-39 9 0 11 13 5 46 -4 25 -9 57 -11 71 -2 17 -6 21 -11 12z"/>
<path d="M1452 1430 c3 -17 1 -33 -4 -36 -15 -9 -9 -34 7 -28 18 7 22 94 4 94
-7 0 -9 -12 -7 -30z"/>
<path d="M463 1426 c-16 -13 -35 -36 -42 -50 -8 -14 -21 -26 -29 -26 -9 0 -12
-3 -9 -7 10 -10 57 18 57 34 0 19 25 43 44 43 18 0 30 16 17 24 -5 4 -22 -5
-38 -18z"/>
<path d="M573 1416 c8 -19 -21 -49 -40 -42 -8 3 -11 1 -8 -4 3 -6 -3 -10 -14
-10 -12 0 -21 -3 -21 -7 0 -5 41 -7 91 -5 50 2 88 6 84 10 -3 3 -21 5 -40 3
-45 -3 -58 5 -43 29 7 10 16 16 20 14 4 -3 8 -3 8 0 0 3 -10 10 -22 17 -18 10
-20 9 -15 -5z"/>
<path d="M1111 1407 c-1 -25 2 -28 27 -25 32 4 39 40 8 46 -11 3 -16 0 -12 -7
4 -6 3 -11 -3 -11 -5 0 -12 6 -14 13 -3 6 -6 -1 -6 -16z"/>
<path d="M1500 1405 c0 -23 4 -25 45 -25 36 0 45 4 45 17 0 13 -3 14 -12 5
-18 -18 -30 -14 -23 8 5 17 2 20 -24 20 -26 0 -31 -4 -31 -25z"/>
<path d="M404 1268 c17 -10 213 -14 222 -5 4 4 -24 7 -62 7 -38 1 -92 2 -121
3 -29 1 -46 -1 -39 -5z"/>
<path d="M1105 1240 c-38 -3 -77 -10 -86 -14 -10 -4 -20 -3 -24 3 -3 6 -21 11
-39 11 -47 0 -106 -56 -106 -101 0 -37 41 -92 93 -124 28 -18 37 -45 14 -45
-7 0 -22 7 -34 15 -22 15 -22 15 -12 -15 8 -22 17 -30 36 -30 27 0 53 21 53
42 -1 20 -26 48 -44 48 -9 0 -16 5 -16 10 0 6 -7 10 -15 10 -8 0 -15 6 -15 13
0 7 -9 19 -20 27 -35 25 -20 110 19 110 6 0 11 7 11 15 0 24 52 14 80 -14 14
-15 30 -37 37 -51 6 -14 12 -19 12 -12 1 6 12 12 26 12 l25 0 1 -107 c1 -60 5
-119 9 -133 5 -15 8 32 9 120 l1 146 -40 -4 c-39 -4 -40 -3 -40 26 l0 30 59
-5 c51 -5 139 3 130 11 -11 9 -62 12 -124 6z"/>
<path d="M1792 1243 c-13 -2 -26 -12 -29 -21 -6 -15 -22 -37 -62 -88 -5 -6
-12 -20 -15 -32 -4 -12 -12 -22 -17 -22 -12 0 -12 -18 1 -33 39 -46 50 -61 50
-69 0 -5 9 -18 20 -30 11 -12 20 -32 20 -44 0 -14 8 -24 23 -28 28 -7 121 -8
167 0 l35 6 -3 172 -3 172 61 -1 c49 0 60 -3 60 -17 0 -11 6 -15 20 -11 19 5
18 7 -7 26 -26 21 -59 25 -133 18 -14 -1 -56 0 -95 3 -38 2 -80 2 -93 -1z
m158 -46 l0 -29 -70 4 -70 3 0 -47 0 -48 65 0 c63 0 65 -1 65 -26 0 -14 3 -23
8 -21 11 8 12 -46 0 -60 -15 -18 -83 -16 -102 3 -25 24 -19 34 22 34 20 0 44
5 52 10 11 7 -3 10 -47 10 l-63 0 0 -45 0 -45 70 0 c68 0 70 -1 70 -25 0 -25
-1 -25 -85 -25 l-85 0 0 168 0 167 85 0 85 0 0 -28z m5 -77 c0 -23 -3 -25 -45
-22 -64 5 -76 9 -77 31 -2 23 21 29 82 21 35 -4 40 -8 40 -30z m-200 -54 c0
-86 -5 -93 -35 -52 -26 36 -28 59 -6 98 32 58 42 48 41 -46z"/>
<path d="M1328 1233 c15 -3 22 -12 22 -29 0 -13 4 -24 10 -24 5 0 12 -27 16
-60 4 -33 11 -63 15 -66 5 -3 9 -14 9 -24 0 -10 4 -20 9 -22 5 -2 11 -30 13
-63 2 -41 8 -62 18 -67 20 -9 129 -8 160 2 17 5 -6 8 -67 9 l-93 1 -1 173 c0
105 -4 164 -9 152 -5 -11 -9 -48 -9 -82 -1 -35 -5 -63 -9 -63 -5 0 -9 6 -9 13
-6 81 -39 151 -73 154 -22 1 -22 1 -2 -4z"/>
<path d="M1685 1214 c-26 -24 -29 -25 -35 -9 -6 18 -7 18 -13 1 -4 -10 -6 -39
-6 -64 1 -26 3 -39 6 -29 2 9 8 17 12 17 4 0 20 22 35 49 17 32 35 51 49 54
21 4 21 4 1 6 -12 0 -34 -11 -49 -25z"/>
<path d="M1230 1197 c0 -24 -4 -27 -35 -27 l-35 0 2 -142 2 -143 3 131 4 130
31 10 c39 11 58 38 40 56 -9 9 -12 6 -12 -15z"/>
<path d="M1287 1209 c-2 -8 -9 -30 -16 -50 -6 -19 -11 -46 -11 -60 0 -13 -7
-33 -15 -43 -8 -11 -15 -38 -15 -61 0 -23 -5 -46 -11 -52 -6 -6 -9 -19 -6 -29
4 -16 5 -15 6 4 0 12 6 22 11 22 6 0 10 13 10 29 0 17 4 32 9 35 5 3 7 15 4
26 -3 11 0 20 6 20 6 0 11 17 11 40 0 22 4 40 9 40 9 0 25 80 17 88 -3 3 -7
-1 -9 -9z"/>
<path d="M1482 1105 c-1 -66 -5 -130 -8 -142 -5 -20 -2 -21 55 -25 l61 -3 -1
145 c0 90 -4 137 -9 125 -5 -11 -9 -68 -9 -126 -1 -104 -2 -107 -25 -113 -51
-13 -55 -4 -59 132 l-3 127 -2 -120z"/>
<path d="M2146 1060 c2 -108 6 -133 20 -148 17 -16 17 -16 10 3 -4 11 -10 75
-13 143 -3 67 -9 125 -13 127 -4 3 -6 -54 -4 -125z"/>
<path d="M1329 1175 c-8 -13 -21 -64 -24 -90 -1 -11 -4 -26 -6 -34 -3 -11 7
-16 34 -18 20 -2 37 1 37 7 0 5 -4 10 -10 10 -5 0 -11 17 -11 38 -2 50 -13 99
-20 87z"/>
<path d="M917 1156 c-10 -24 4 -56 24 -56 11 0 19 -4 19 -10 0 -5 11 -10 25
-10 18 0 25 -5 25 -20 0 -11 4 -20 9 -20 15 0 19 -84 4 -101 -7 -9 -10 -19 -6
-22 3 -4 -1 -7 -10 -7 -10 0 -17 -4 -17 -10 0 -5 -16 -10 -35 -10 -19 0 -35 5
-35 10 0 6 -7 10 -15 10 -8 0 -15 7 -15 15 0 8 -4 15 -9 15 -5 0 -12 12 -14
28 -4 25 -4 25 -6 -6 -2 -54 65 -99 119 -80 72 26 93 115 45 186 -23 34 -24
37 -8 44 15 5 15 7 2 7 -9 1 -22 12 -29 26 -15 28 -64 35 -73 11z"/>
<path d="M2020 1110 l0 -60 40 0 c29 0 40 4 40 15 0 8 5 15 10 15 6 0 10 14
10 30 0 17 -4 30 -10 30 -5 0 -10 7 -10 15 0 11 -11 15 -40 15 l-40 0 0 -60z
m68 23 c13 -25 1 -48 -23 -48 -15 0 -21 8 -23 33 -3 27 0 32 17 32 11 0 24 -8
29 -17z"/>
<path d="M1631 985 c0 -63 17 -129 18 -70 l1 29 38 -37 c28 -27 41 -34 52 -27
12 8 11 10 -7 10 -20 0 -27 9 -25 32 1 3 -5 12 -13 18 -8 7 -15 18 -15 24 0 7
-8 21 -18 32 -11 11 -22 26 -25 34 -3 8 -5 -12 -6 -45z"/>
<path d="M2020 946 c0 -77 15 -60 19 22 1 7 14 12 31 12 27 0 30 -3 30 -33 0
-22 8 -41 21 -53 l22 -19 -13 25 c-7 14 -14 43 -14 64 l-1 40 -47 1 -48 1 0
-60z"/>
<path d="M1280 964 c0 -13 -4 -24 -10 -24 -5 0 -10 -12 -9 -27 0 -24 9 -20 11
4 1 19 49 52 66 46 23 -9 41 -34 42 -58 1 -20 1 -20 10 0 5 13 4 24 -4 30 -6
6 -10 20 -8 32 3 19 -1 21 -47 21 -47 1 -51 -1 -51 -24z"/>
<path d="M1856 815 c-12 -9 -19 -28 -20 -53 -1 -37 -2 -39 -31 -38 -25 1 -30
6 -30 25 0 14 7 27 15 29 13 4 13 3 2 -10 -8 -10 -9 -19 -4 -22 6 -3 13 5 16
18 3 13 9 31 12 39 5 13 1 13 -30 -1 -25 -11 -36 -23 -36 -37 0 -24 -26 -65
-42 -65 -5 0 -8 7 -4 15 7 18 -3 45 -16 45 -5 0 -7 -8 -3 -19 5 -16 0 -18 -51
-17 -64 1 -89 -20 -32 -26 l33 -4 -42 -8 c-69 -14 -60 -31 14 -29 36 1 67 4
70 6 2 3 -3 12 -12 21 -23 23 -3 20 22 -4 15 -14 23 -16 27 -7 8 20 23 -11 20
-41 l-4 -27 8 25 c6 19 15 25 35 24 15 -1 27 3 27 9 0 5 7 4 15 -3 16 -13 21
-60 6 -60 -5 0 -7 9 -4 20 3 11 0 20 -6 20 -6 0 -11 -9 -11 -21 0 -18 -5 -20
-42 -17 -35 2 -44 7 -50 28 -7 24 -8 24 -4 -2 3 -26 1 -28 -35 -28 -25 0 -39
5 -39 13 0 8 -4 7 -10 -3 -9 -13 -11 -13 -20 0 -9 13 -11 13 -20 0 -9 -13 -11
-13 -20 0 -5 8 -11 20 -13 25 -3 6 -7 7 -11 3 -17 -15 19 -47 60 -53 68 -10
298 -3 306 9 14 20 8 26 -12 14 -25 -16 -36 -5 -44 49 -5 35 -4 41 9 37 8 -4
15 -12 15 -20 0 -13 11 -18 36 -15 14 2 26 -52 17 -76 -6 -17 -5 -17 15 0 13
12 26 16 34 11 42 -27 100 -2 78 33 -10 16 -11 16 -6 -5 6 -32 -16 -23 -25 10
-9 35 4 56 23 37 8 -8 18 -23 22 -34 8 -19 9 -19 17 5 6 18 7 14 3 -15 -3 -22
-10 -43 -15 -46 -15 -9 115 3 133 12 10 5 19 5 22 0 8 -13 252 -14 276 -1 12
7 21 7 25 0 8 -13 95 -13 115 0 11 7 7 10 -20 11 -19 1 -47 1 -62 0 -16 -1
-29 1 -29 6 -7 50 -6 68 6 79 21 21 45 17 45 -7 0 -14 -5 -19 -14 -16 -15 6
-30 -19 -20 -34 9 -14 34 -10 34 6 0 7 8 18 17 24 14 7 21 4 35 -17 13 -19 18
-22 18 -10 0 18 -70 78 -92 78 -30 0 -58 -36 -58 -74 l0 -36 -50 0 c-47 0 -50
2 -50 26 0 15 -4 23 -11 18 -6 -3 -9 -15 -6 -25 4 -16 -1 -19 -38 -19 -48 0
-64 13 -45 35 7 8 9 16 4 17 -5 0 14 4 41 7 43 5 52 3 62 -14 11 -18 12 -18
13 -2 0 13 7 17 26 15 15 -2 29 3 31 10 3 7 1 12 -4 11 -4 -1 -45 -1 -90 0
-76 1 -83 3 -83 21 0 18 -10 25 -32 21 -5 0 -8 10 -8 24 0 14 -4 25 -10 25 -5
0 -10 -11 -10 -25 0 -20 -5 -25 -24 -25 -32 0 -44 20 -22 36 13 9 14 13 4 18
-7 3 -1 4 15 2 15 -2 27 0 27 4 0 11 54 -1 62 -14 4 -6 10 -8 13 -4 3 3 -1 13
-10 22 -12 12 -34 16 -86 15 -49 -1 -76 4 -95 16 -14 9 -28 14 -32 11 -3 -3 0
-6 6 -6 6 0 14 -9 17 -20 4 -14 15 -20 36 -20 16 0 29 -4 29 -10 0 -5 -5 -10
-11 -10 -6 0 -8 -9 -4 -20 6 -17 2 -20 -27 -17 -29 2 -33 6 -38 38 -8 44 -17
59 -38 59 -11 0 -13 -3 -6 -8 6 -4 14 -19 17 -34 4 -14 10 -33 13 -42 4 -11 1
-16 -10 -16 -9 0 -16 5 -16 11 0 6 -8 3 -17 -7 -20 -20 -29 -4 -14 25 6 11 11
29 11 40 0 18 -3 19 -17 10 -14 -8 -29 -7 -60 4 -24 8 -40 11 -37 6 3 -5 -2
-9 -10 -9 -22 0 -20 -20 2 -21 9 0 31 -2 47 -2 25 -2 31 -7 33 -29 2 -16 -1
-28 -7 -28 -6 0 -11 10 -12 23 -1 21 -1 21 -9 -3 l-8 -25 -1 28 c-1 15 -6 27
-12 27 -6 0 -9 -9 -6 -20 3 -11 1 -23 -4 -26 -5 -3 -9 5 -10 18 -1 23 -1 23
-9 -2 -8 -25 -8 -25 -10 5 -2 29 -2 29 -9 5 -8 -28 -41 -41 -41 -16 0 9 5 16
11 16 7 0 9 12 5 34 -6 30 -4 35 16 39 19 4 20 4 3 5 -11 1 -28 -5 -39 -13z
m-55 -115 c11 0 18 -4 15 -9 -4 -5 -14 -8 -24 -6 -9 2 -25 4 -35 4 -10 1 -15
6 -12 12 4 6 14 8 22 5 8 -3 24 -6 34 -6z m403 -24 c-4 -11 -7 -33 -6 -48 1
-27 -1 -28 -49 -28 -48 0 -49 1 -49 29 0 16 -3 36 -6 45 -4 10 -1 16 9 16 12
0 14 -10 11 -42 -3 -32 -2 -37 4 -18 6 17 15 24 29 23 12 -1 27 5 34 15 7 9
10 14 5 10 -5 -4 -18 -2 -30 4 -20 11 -20 11 -1 18 33 12 56 0 49 -24z m-247
12 c-5 -15 -46 -13 -61 2 -7 7 3 10 28 10 26 0 36 -4 33 -12z m53 -2 c0 -8 -5
-18 -10 -21 -8 -5 -7 -11 1 -21 14 -17 5 -44 -16 -44 -17 0 -20 17 -4 22 9 3
8 10 -2 25 -10 18 -11 24 0 37 17 20 31 21 31 2z m270 -5 c0 -14 -5 -18 -20
-14 -16 4 -20 0 -20 -21 0 -16 6 -26 15 -26 9 0 12 6 9 15 -4 9 0 15 10 15 19
0 20 -5 6 -31 -25 -45 -63 -7 -48 49 10 36 48 47 48 13z"/>
<path d="M1560 795 c-10 -12 -10 -15 2 -15 8 0 20 6 27 13 10 10 14 9 21 -4 7
-12 21 -15 60 -11 37 2 50 0 50 -10 0 -8 5 -6 11 5 6 10 9 20 7 21 -1 2 -40 6
-85 9 -64 5 -84 3 -93 -8z"/>
<path d="M1844 412 c-6 -4 -17 -24 -23 -45 -7 -20 -17 -35 -22 -32 -5 4 -9 4
-9 1 0 -9 86 -56 103 -56 10 0 26 9 37 20 24 24 27 24 47 5 20 -21 30 -11 12
11 -8 10 -13 25 -11 36 5 28 -14 22 -39 -13 -16 -23 -24 -28 -30 -17 -7 10 -9
10 -9 0 0 -9 -11 -12 -32 -10 -25 2 -34 8 -36 26 -2 13 3 24 12 28 8 3 12 12
9 20 -4 10 3 14 21 14 24 0 36 -14 18 -22 -4 -1 0 -10 9 -19 15 -15 17 -15 28
2 9 15 8 19 -3 19 -8 0 -18 9 -21 20 -6 20 -39 27 -61 12z"/>
<path d="M2083 402 c-28 -22 -39 -67 -23 -87 11 -14 15 -13 27 5 11 16 12 24
3 35 -9 10 -7 20 5 39 20 30 18 32 -12 8z"/>
<path d="M2369 391 c14 -16 29 -24 32 -19 4 7 9 6 14 -1 5 -9 11 -9 22 0 12
10 16 10 23 0 9 -16 30 -6 30 15 0 31 29 13 36 -23 5 -29 3 -39 -12 -50 -12
-9 -21 -10 -28 -3 -14 14 -23 12 -30 -5 -4 -12 7 -15 66 -15 56 0 69 3 60 12
-18 18 -15 58 6 65 9 4 20 11 24 17 4 6 13 5 24 -5 19 -15 84 -20 84 -6 0 5 7
4 16 -4 13 -10 17 -10 24 2 8 11 -1 15 -43 19 -29 3 -55 1 -59 -5 -5 -6 -11
-5 -17 3 -6 10 -19 11 -45 6 -24 -4 -46 -2 -62 6 -18 10 -30 11 -49 2 -35 -16
-76 -15 -99 3 -34 26 -45 16 -17 -14z m186 -89 c-3 -3 -11 0 -17 6 -9 9 -9 12
1 12 9 0 11 8 7 24 -3 12 -2 26 2 30 4 5 8 -9 10 -29 2 -20 1 -40 -3 -43z"/>
<path d="M2120 390 c0 -11 -5 -20 -12 -20 -9 0 -9 -3 0 -12 16 -16 15 -33 -3
-51 -13 -13 -10 -15 20 -19 27 -3 35 0 39 16 3 11 0 27 -5 35 -8 13 -9 11 -5
-7 3 -15 0 -22 -7 -19 -14 4 -21 42 -13 63 8 21 46 -4 47 -31 1 -17 2 -16 9 5
14 42 12 52 -9 45 -11 -3 -22 -1 -26 5 -11 18 -35 11 -35 -10z"/>
<path d="M2226 375 c-9 -33 -7 -40 7 -20 8 10 19 15 25 11 17 -10 15 -26 -3
-26 -8 0 -15 -4 -15 -9 0 -5 11 -8 25 -8 21 0 23 3 18 30 -5 23 -3 29 8 25 9
-3 14 -19 14 -41 0 -23 5 -37 12 -37 16 0 27 43 20 72 -5 20 -13 23 -56 23
-42 0 -51 -3 -55 -20z"/>
<path d="M2794 393 c-5 -2 -9 -18 -8 -35 1 -18 -2 -40 -7 -49 -7 -14 -5 -16
11 -12 11 3 23 16 26 29 7 28 -7 72 -22 67z"/>
<path d="M2836 336 c5 -19 2 -31 -7 -37 -9 -6 5 -9 40 -9 46 0 52 2 41 15 -7
8 -16 12 -21 9 -5 -3 -9 4 -9 15 0 28 -20 27 -21 -1 -1 -21 -2 -21 -6 -3 -3
11 -9 25 -15 30 -6 7 -7 0 -2 -19z"/>
<path d="M2362 325 c1 -13 9 -27 17 -30 19 -7 20 -5 14 28 -7 34 -34 37 -31 2z"/>
<path d="M2404 330 c3 -14 6 -28 6 -32 0 -5 7 -8 15 -8 20 0 19 10 -6 40 l-21
25 6 -25z"/>
<path d="M2721 330 c-2 -14 -5 -19 -8 -12 -4 10 -9 9 -24 -4 -12 -11 -19 -13
-19 -5 0 8 -5 9 -19 1 -13 -7 -22 -7 -26 0 -9 15 -25 12 -25 -5 0 -12 15 -15
75 -15 43 0 75 4 75 10 0 6 -4 10 -9 10 -5 0 -12 10 -14 23 -4 21 -4 21 -6 -3z"/>
<path d="M2191 311 c-11 -19 -9 -21 19 -21 30 0 42 21 20 35 -5 3 -10 0 -10
-7 0 -10 -2 -10 -9 1 -7 11 -11 9 -20 -8z"/>
</g>
</svg>
